<svg height="316.227766" viewBox="0 0 230 230" width="316.227766" xmlns="http://www.w3.org/2000/svg"><g transform="matrix(.4813333213 0 0 -.4813333213 6.69981792173 223.29965863716)"><path d="m263.477 431.258c2.222 2.551 4.027 2.617 4.894 1.898.844-.695 1.117-2.34-.035-4.015-1.082-1.575-2.574-3.348-4.016-5.063-2.371-2.824-4.504-5.355-5.472-7.562-.532.238-1.082.441-1.637.617.414 2.191 2.039 9.273 6.266 14.125" fill="#8f2f0e"/><path d="m255.715 438.312c.375.157.672.211.902.211 3.199-.128 3.512-3.558 1.289-9.183-1.648-4.172-2.773-9.301-3.101-11.731-.086.004-.168.016-.25.024-3.985 10.633-1.192 19.699 1.16 20.679" fill="#8f2f0e"/><path d="m242.477 427.969c-1.262 5.918 2.277 6.621 4.507.117 1.442-4.211 4.137-8.078 5.461-9.914-.062-.02-.125-.027-.191-.043-4.645 1.531-8.617 4.394-9.777 9.84" fill="#8f2f0e"/><path d="m248.422 414.102c1.726 1.652 3.598 2.378 5.683 2.23 2.633-.187 4.735-1.305 6.43-3.414 7.699-9.582 5.125-36.859 1.715-60.113-4.289-29.235-13.906-79.172-14.004-79.668l-.051-.289c-.66-.575-2.023-1.336-4.836-1.868-.382-.074-.746-.128-1.093-.183-.395 5.945-3.75 56.949-4.301 78.512-.668 26.003 1.473 56.211 10.457 64.793" fill="#cce994"/><path d="m240.184 270.391c-5.278-.012-8.289 1.039-8.676 1.414-1.188 1.148 4.871 2.062 8.164 2.355.176-1.543.437-3.113.512-3.769" fill="#231f20"/><path d="m214.074 431.949c1.059 1.262 2.379 1.641 2.727 1.641.078 0 .125-.031.168-.047 1.437-.367 1.543-2.66-.059-4.816-2.168-2.922-5.168-8.02-6.5-10.676-.144.051-.285.097-.433.14.078 3.461 1.335 10.473 4.097 13.758" fill="#8f2f0e"/><path d="m203.738 437.949c.352 1.446 1.074 2.36 1.836 2.36.059 0 .117-.02.18-.016 1.629.043 3.375-1.027 2.391-5.359-1.11-4.895-1.583-12.711-1.583-15.719-4.027 7.98-3.96 14.074-2.824 18.734" fill="#8f2f0e"/><path d="m195.016 425.031c-2.219 2.699-2.164 5.395-1.618 6.41.227.426.602.676 1.012.676h.063c.66-.043 2.238-1.422 2.625-2.445 1.609-4.254 6.035-9.008 8.136-11.16-.039-.016-.078-.039-.117-.059-3.238 1-6.926 2.719-10.101 6.578" fill="#8f2f0e"/><path d="m194.941 351.734c-1.859 24.911.297 54.735 8.121 62.918 1.356 1.418 2.786 2.098 4.387 2.039 1.754-.054 3.293-.816 4.711-2.339 7.129-7.645 8.871-30.954 8.047-51.211-.703-17.102-2.453-75.621-2.562-79.168-2.469-1.196-4.891-2.746-7.153-4.414-4.312 12.003-13.762 48.199-15.551 72.175" fill="#cce994"/><path d="m182.309 191.277c.726.528 1.187.395 1.578 1.118 3.351 2.523 6.726 5.132 10.14 7.734-4.355.746-8.586 1.695-12.504 3.793.172-4.242-.043-8.707.786-12.645" fill="#fff"/><path d="m277.578 237.05117c-.078.35199-.973.78085-1.109 1.11283-1.629-2.24626-3.285-5.21851-4.821-6.60576-2.046-1.84032-3.808-2.96959-4.875-3.43476.84.80513 2.332 2.18437 4.11 4.19264 1.769 2.00728 3.855 4.64061 5.617 7.92188 1.75 3.26228 3.164 7.2665 3.043 11.51248-.043 2.117-.512 4.24192-1.328 6.29279-.805 2.03488-1.985 3.91769-3.563 5.40245-3.14 3.0265-7.73 4.14278-12.023 4.18911-4.363.0653-8.445-.79832-12.168-1.74791-7.535-1.77918-13.586-1.88113-15.852-1.26448 2.305.20336 8.094.91127 15.391 3.04541 2.016.62932 4.258 1.24267 6.652 1.67704-1.172 1.28082-3.105 3.24152-5.664 5.31512-.258-1.21804-.406-1.91407-.418-1.97207l-.125-.66102c-.007-.527-.84-1.62813-6.73-2.90705-1.426-.30523-2.633-.38342-3.649-.38358-3.988-.00062-5.195 1.72219-5.351 2.65217-.34 1.99194 3.14 2.59349 4.957 2.77377-.129 1.94498-.293 4.50796-.484 7.52793-3.965 1.55338-8.411 2.52168-13.2 2.27493-4.597-.23872-9.676-3.05252-14.152-6.38522.398.0271.797.0551 1.18.0822 1.222.1062 2.433-.15961 3.359-.70247.934-.53485 1.586-1.27275 2.035-1.96868.895-1.40986 1.121-2.63682 1.156-3.31582-.308.60095-.789 1.70688-1.769 2.85872-.492.56293-1.121 1.12083-1.91 1.4767-.789.35888-1.735.49173-2.731.34658-1.105-.16018-2.301-.31236-3.574-.34756-1.27-.0352-2.652.0346-4.039.50336-1.383.44479-2.672 1.36258-3.621 2.48744-.504.60092-.84 1.05086-1.301 1.53079-.441.46893-.91.90586-1.41 1.28878-1 .76584-2.133 1.30067-3.324 1.50348-.598.10591-1.207.12881-1.813.0897-.301-.0271-.605-.0591-.902-.11315l-.52-.0711c-.195-.015-.41-.0391-.586-.0351-2.929.0345-5.332 1.18317-7.289 2.38986-1.953 1.24169-3.984 2.60437-4.902 3.94423-.039.051-.059.098-.09.14899.031-.114.051-.211.086-.32899.445-1.55793 1.059-3.54283 2.305-5.35864.625-.8869 1.433-1.71077 2.445-2.16762 1.09-.45282 2.352-.78463 3.668-1.05442 1.316-.27279 2.703-.48358 4.133-.79535 1.426-.32078 2.933-.74254 4.297-1.61733.676-.42889 1.297-.9798 1.808-1.60472.528-.66391.86-1.23386 1.274-1.8238.793-1.15687 1.566-2.31275 2.5-2.8596.922-.56186 2.219-.58166 3.457-.54646 1.258.0392 2.504.16839 3.758.0906 1.25-.0508 2.504-.50761 3.359-1.21748.871-.69586 1.449-1.49277 1.902-2.2067.891-1.44986 1.328-2.63279 1.528-3.31676-.457.54693-1.125 1.61282-2.149 2.86666-1.019 1.24584-2.504 2.65961-4.695 2.56227-1.086.004-2.305-.18436-3.621-.28557-.801-.0391-1.703-.10627-2.629.0496-1.195-1.19119-2.152-2.20734-2.809-2.92144 2.41-.69162 4.282-1.06233 5.399-1.14016-1.164-.30918-3.336-.27752-6.106.21805-2.769.48356-6.172 1.47103-9.859 2.83745-3.52 1.23045-7.898 1.76076-11.992.41612-2.028-.66032-3.93-1.80061-5.414-3.39885-1.489-1.58623-2.539-3.60539-3.106-5.77748-.582-2.16409-.679-4.50411-.566-6.79709.117-2.29698.492-4.55492 1.082-6.69583 1.176-4.29982 3.211-8.1125 5.496-11.17014 2.281-3.06664 4.805-5.39425 6.957-7.06991 2.168-1.68266 3.973-2.74538 4.957-3.41722-1.152.30082-3.152 1.0505-5.566 2.53112-.231.14397-.469.29993-.707.45689-3.262-3.78251-6.497-7.58302-9.918-11.26355 1.578-4.14875 6.578-3.49097 9.476-5.85752.656-2.19189.887-4.60986.988-7.09784 3.918-2.09739 8.149-3.04572 12.504-3.79104 2.02 1.53532 4.035 3.08263 6.114 4.57496 3.492-.27246 8.738-.0376 11.332-.0132 4.679.0357 9.359.47747 13.953 1.36919 8.582 1.66134 17.324 2.81072 25.719 5.30103 11.121 3.29074 21.121 8.94831 30.992 15.00486-1.446 3.28877-2.582 7.53459-4.559 10.69028" fill="#ef2e31" stroke="#ef2e31"/><path d="m182.176 283.996c.625-.887 1.433-1.711 2.445-2.168 1.09-.453 2.352-.785 3.668-1.055 1.316-.273 2.703-.484 4.133-.796 1.426-.321 2.933-.743 4.297-1.618.676-.429 1.297-.98 1.808-1.605.528-.664.86-1.234 1.274-1.824.793-1.157 1.566-2.313 2.5-2.86.922-.562 2.219-.582 3.457-.547 1.258.039 2.504.168 3.758.09 1.25-.051 2.504-.508 3.359-1.218.871-.696 1.449-1.493 1.902-2.207.891-1.45 1.328-2.633 1.528-3.317 0 0 3.472 3.938 3.14 7.039-.308.625-.777 1.598-1.648 2.625-.492.563-1.121 1.121-1.91 1.477-.789.359-1.735.492-2.731.347-1.105-.16-2.301-.312-3.574-.347-1.27-.035-2.652.035-4.039.504-1.383.445-2.672 1.363-3.621 2.488-.504.601-.84 1.051-1.301 1.531-.441.469-.91.906-1.41 1.289-1 .766-2.133 1.301-3.324 1.504-.598.106-1.207.129-1.813.09-.301-.027-.605-.059-.902-.113l-.52-.071c-.195-.015-.41-.039-.586-.035-2.929.035-5.332 1.184-7.289 2.391-1.953 1.242-3.984 2.605-4.902 3.945-.039.051-.059.098-.09.149.031-.114.051-.211.086-.329.445-1.558 1.059-3.543 2.305-5.359" fill="#8f2f0e"/><path d="m239.164 205.625c-1.047-2.305-2.5-5.199-3.617-7.898-1.906-2.895-3.434-7.661-5.082-10.954-.723-.328-3.781.825-4.442 1.676-7.234 4.473-12.98 8.16-20.023 13.098 5.793.191 11.977.723 17.508 1.379 5.195.922 10.461 1.383 15.656 2.699" fill="#abddf6"/><path d="m169.215 214.77c2.238-2.301 4.867-4.477 8.027-4.872l.137-.128c-1.715-2.567-2.363-4.774-4.336-6.813-.527-.199-2.797-1.746-3.457-1.68-.656 3.161-1.742 8.586-2.863 11.746z" fill="#abddf6"/><path d="m168.559 200.754c4.211-1.578 7.046 6.41 10.007 8.316.746-1.976 1.235-6.511 1.383-8.582.149-2.152.707-4.636.688-6.808-.02-1.899-1.52-3.602.093-4.969 1.852-1.566 15.891 9.828 20.133 14.246 4.61-3.156 24.153-16.484 29.617-17.867 1.512 2.039 2.567 3.621 3.75 5.859 2.5 5.328 5.332 9.606 7.305 15.137 8.36 2.371 16.188 4.672 24.02 8.422 5.133 2.961 11.765 7.316 16.836 10.476 1.246-.199 1.074-1.66.812-2.519-.262-.524-.023.371 1.555.371 5.988.398 11.039.476 16.504.148 4.472 0 10.109-2.031 14.648-1.703 1.055-.59 1.899-2.969 2.887-3.625-.988-.922-2.781-.058-3.699.074-5-1.316-7.426-6.183-6.11-10.988h.133c.785-1.906 1.426-1.457 3.008-2.773 1.25-.785 2.582-4.008 4.094-3.676.859.656-3.18 2.762-3.18 2.762l2.523 3.359c.2.793 4.164-.762 5.352-.762-.332-2.5-2.523-7-5.613-8.058-2.899-1.184-5.332.133-8.094.793-5.332 2.039-10.086 1.629-15.418 4.133-.66.265-1.07.734-1.07.074 1.582-1.84 2.687-1.766 5.121-2.293 3.16-4.012 6.449-8.871 8.82-13.281 2.172-3.223 2.813-7.586 4.918-10.747-14.48-7.961-29.609-11.945-46.062-15.894-5.461-1.055-11.493-2.332-17.02-3.258-13.297-.914-29.379-2.168-42.734.203-10.469.067-20.985 3.465-30.528 6.36-8.359 3.355-17.332 6.347-24.765 11.546-2.368.528-3.946 3.817-5.918 4.735-.2.094 11.39 15.16 12.379 16.508 2.425 3.308 4.679 7.449 7.355 10.527.488.562 3.863 4 3.649 4.637.921-2.762.972-7.922 2.621-10.883" fill="#abddf6"/><path d="m140.125 211.422c-1.543.074 2.238 1.738 2.238 2.527 6.844 2.434 15.922.598 23.028 1.192l1.48-.813c-3.945-5.332-8.695-11.941-12.578-17.469-2.172-1.906-5.137-4.468-6.586-7.097-1.711-.922-5.246.519-5.773 1.773-.129.985.433 2.442.562 3.492 2.832 1.188 2.172-2.363 4.609-2.632 1.184 1.91 3.489 3.687 3.489 6.32 1.051 3.355-1.055 6.578-2.571 9.476-.523 1.579-2.507 1.485-2.839 1.09-.528-1.383 2.722-1.351.683-2.136-.66-.661-2.187-.665-2.383-1.52-.789.195-1.906-.332-2.699-.133-.328 2.965-1.055 5.801-.66 5.93" fill="#abddf6"/><path d="m127.496 195.555c-6.449-.063-12.109-.528-18.496-.789-10.094-1.844-15.828-1.301-19.746 1.968-4.52 3.77-6.418 10.504-6.418 10.504s-3.973 16.414-6.012 25.692c-.265 2.175-.886 3.562-3.883 3.187-3.492-.133-7.242-.023-10.531.766-21.453 3.621-37.445 22.043-43.43 42.051-2.175 9.605-2.964 18.031-2.367 28.226 1.575 21.52 15.922 42.184 37.309 48.371 9.551 2.762 19.832 3.266 29.351.789 6.145-1.605 11.965-4.605 16.555-9.027 3.035-2.926 6.09-6.289 7.43-10.363.894-2.715 1.551-7.289-.891-9.418-3.246-2.836-8.742 1.668-11.844-2.188-.16-1.594-.55-3.211-.476-4.816.152-3.278 3.101-6.528-.801-8.059.699-.59-12.41-5.937-11.621-.144-1.777-.266-1.199.082-.887-1.481.395-5.07 3.848-7.621 5.621-13.691 0-4.344-6.179-6.422-7.168-10.172-1.117.59 1.696-.731-.082-1.32-1.054-.067 7.457-1.61 7.325-7.598.925-2.832-3.098-4.902-4.082-7.207-1.911-2.434-.661-5.395.789-7.699 2.566-2.567 5.726-3.653 9.214-3.52 2.512.606 5.856-.097 7.7 1.942 2.168 2.832.129 7.832 2.367 10.855 2.766 1.516 3.121.258 4.433 4.074-.855.985.176 2.961-.808 2.961-.465 3.817-1.188 5.137.789 8.555 2.102.461 12.496 4.152 5.523 3.691-.461 2.11-1.644 3.95-1.449 6.321.328 3.027 3.488 3.64 5.594 4.691 12.418-4.102 19.633-14.078 19.934-23.879.503-16.633-15.536-34.984-35.333-39.383-3.832-.851-8.226-.59-11.648-2.562-.754-.438 1.012-9.238 1.191-10.328.512-3.168.633-4.993 1.211-8.141.829-4.504 1.403-11.371 6.153-13.801 8.679-2.304 17.898-1.558 26.324-1.82 5.66-.063 11.644.199 17.043.332 1.644.063 4.082.063 5.855.59.856-1.91 1.188-4.672-.328-6.445-6.578-.2-13.426-.86-19.41-1.715" fill="#ef2e31"/><path d="m68.629 350.332c2.5-3.023 2.633-6.977 1.777-10.793-1.25-3.484-4.406-6.512-6.781-9.277-7.5-6.516-14.473-13.098-19.937-21.52-2.895-5.461-5.661-11.183-8.489-16.586-1.84-2.695-5.922-4.472-8.683-1.84-6.914 10.332-3.754 23.954.461 34.879 5.527 9.938 12.765 22.176 24.609 26.059 4.937 3.687 12.633 3.555 17.043-.922" fill="#fabfbb"/><path d="m127.395 268.469c-.793-8.489-7.043-15.594-14.348-19.742-1.973-1.25-5.328-1.383-7.77-1.84-8.64 1.656 6.161 11.949 7.114 13.425 1.613 2.5 3.754 4.598 5.75 6.793.804.883 3.894 5.5 5.304 5.051 1.84-.594 3.356-1.711 3.95-3.687" fill="#fabfbb"/><path d="m132.398 176.078c1.016-3.918 9.469-5.406 5.055-10.027-2.48-4.621-4.961-9.406-7.723-13.871-3.035 2.433-4.964 4.941-7.535 7.527.274 6.422 7.262 10.652 10.203 16.371" fill="#231f20"/><path d="m172.043 26.234c-1.379-1.445-3.355-1.117-4.34.594-5.004 5.922-6.383 15.199-8.754 22.176 6.117-2.234 13.489-2.695 20.004-4.145-1.777-6.32-3.945-12.836-6.91-18.625" fill="#ef2e31"/><path d="m268.711 23.078c-.918-4.281-2.359-11.871-7.559-12.328-2.898.785-6.086 4.309-7.007 6.809-3.817 5.726-4.469 14.5-6.707 20.82 7.238-.859 16.535-2.801 23.91-2.531-.395-4.215-1.516-8.625-2.637-12.77" fill="#ef2e31"/><path d="m302.34 72.695c-5.789-3.164-10.77-7.086-16.695-9.851-.852.07-2.211-1.133-2.739-.145.266.723-.113.074-1.035-1.703-.262-.922-.324-1.262-.391-2.051.989-5.332 2.5-10.863 3.028-16.586-.922-1.843-3.16-2.433-5.067-2.832-14.347-1.312-30.078-.332-43.105 4.411-.59 1.515-.133 3.292-.195 4.871 1.777 0 16.515 1.644 21.976 2.367-.722 2.043-9.543.859-14.211.328.528.266 1.391 1.672 2.446 1.672 3.683 1.972 11.105 4.054 10.976 4.316-2.961-.394-5.527-1.64-8.359-2.172-27.242-6.972-58.692-5.465-81.727 12.043-2.367 2.297-6.648 4.145-5.461 2.965 2.567-2.566 5.657-5.199 8.684-7.308-3.422.332 0-2.829 5.199-3.946 3.688-1.844 6.981-2.082 10.797-3.926 1.312-.066 2.953-3.05 4.336-3.316.398-1.312.961-3.758 1.09-5.34-4.934-.394-10.688.371-15.688.961-8.293 1.848-16.726 3.043-24.5 6.07-.918.727-2.355 1.797-3.344 3.047.594 3.621 1.907 5.926 2.497 9.481-.196 1.777 1.187 3.879-.129 5.656-4.145 4.012-9.411 6.25-13.293 10.598-5.922 5.59-15.418 10.468-19.102 17.84-3.09 3.75-5.543 9.14-7.25 13.613-3.312 7.367-2.93 18.418-.89 26.051 1.019 3.793 3.984 8.418 5.624 11.988.458.992 6.692 6.902 6.813 6.906 1.969.047 3.242-5.176 7-7.547.793-1.187-.195-2.246-.195-2.246 2.304 5.399 3.269 9.535 5.769 14.797.66 2.109 2.668 3.332 4.008 5-2.766 1.051-4.406 4.805-5.988 7.371-1.781 3.356-1.614 7.465.429 10.422 2.829 1.848 7.696 1.406 9.637-.945.266-.856-.519-3.024-.976-4.012.394.594-1.524.414-1.856.742-.594 0-.918 1.031-.918.438.199-1.317 1.445-1.84 1.844-3.157 4.277-4.082 9.41-6.91 14.41-9.937 10.133-5.793 21.914-7.965 32.84-11.844 20.133-4.414 41.062-5.137 61.394-1.582 7.86.992 15.657 2.461 23.348 4.317 7.711 1.855 15.664 4.054 23.035 6.867 3.278 1.25 6.574 2.418 9.692 4.058 1.718.903 7.988 4.008 8.218 6.211.133 1.25 0 2.696-1.378 2.895-.532-.332-.645-2.121-1.497-2.188-.398.395.047 2.586-.609 2.649 0 .199.199.527-.133.593 2.367.325 6.653.489 8.231-1.027 1.316-2.234.914-6.144-.2-9.039-.21-.531-1.046-1.121-1.093-1.652-.145-1.637 3.535-5.61 4.429-6.961 2.012-3.039 4.106-6.031 5.872-9.223-1.45-3.359-5.676-12.433-6.641-15.59-4.086-13.351-2.555-27.265 1.375-40.476.93-3.098 1.844-6.383 3.492-9.02-6.848-7.172-15.598-11.383-23.824-15.922" fill="#8fa1d9"/><path d="m181.008 123.953c-2.567-2.504-7.301-.535-10.063-.203-6.187 2.367-12.5 4.316-18.222 7.41-2.633 1.246-2.754 4.188-2.426 6.426 1.25 2.898 1.496 8.027 3.402 10.656.66 2.57 1.817 4.383 2.149 6.887.922 2.168 2.172 4.168 4.144 5.547 4.078-.594 8.297-3.156 12.383-3.817 4.406-1.578 9.766-2.488 14.109-4.398 1.973-2.371 2.016-6.305.961-8.805-.855-6.777-4.265-13.449-6.437-19.703" fill="#fbbf15"/><path d="m432.309 98.422c-4.676-10.067-13.032-17.234-21.981-23.36-17.64-11.382-40.207-10.394-58.898-2.695-10.782 5.367-21.539 14.418-24.938 25.594-3.867 12.73-4.371 21.687-3.621 33.172 1.977 9.277 5.727 18.558 10.859 26.781.594 1.383 1.383 2.961 2.102 4.473 3.867 8.093 9.082 15.437 13.066 23.468 1.61 3.25 6.559 9.75 6.485 13.321-.067 3.027-6.168 3.816-9.149 4.078-2.984.262-14.578 1.527-21.812 2.711-3.883.66-9.43 1.297-13.246 2.219-1.317 3.031.074 7.695 3.179 9.027 16.321-2.238 32.797-6.262 48.594-8.754 1.313-.137 5.653-.93 4.664-3.039-.57-5.242-4.082-9.906-6.527-14.523-1.172-2.219-6.699-12.715-7.086-14.161-9.742-6.91-14.48-31.652-13.754-31.257-.656 10.664 4.512 22.812 13.332 28.668 5.727 3.293 12.914 6.07 19.168 6.734 11.516.391 22.711-7.301 27.844-17.434 2.562-4.937 1.906-11.457-.66-16.058-3.157-1.582-5.727 1.711-8.684 2.367-3.293-.063-3.555-4.672-6.648-4.734-2.633 1.05-3.555 5.789-7.239 3.75-1.976-1.122-2.632-3.555-4.605-4.282-1.91.789-2.961 1.719-5.262 1.387-2.965-2.961-3.488-5.543-5.926-8.434-.851-2.175-4.41-2.957-6.515-3.019-.332-.266-.528-.66-.461-1.121 1.488-2.278 4.215-.434 5.996.383.84.382 1.855 2.144 2.832 1.976.539-.09 3.891-1.664 4.148-2.144 1.051-2.828 1.129-6.571 1.848-9.395 1.184-1.32.246-3.914 2.219-3.914 3.867 0 9.519 8.523 13.293 3.488 2.304-2.828 4.16-6.543 8.898-6.281 2.039 1.711 3.938 2.859 4.856 5.293 1.117 4.012.066 10.879 4.543 12.922 1.847.191 3.55-1.535 3.679-3.707 1.383-.395-.449 2.508-.117 3.297-.265 4.082 2.531 8.945 5.625 11.25 11.535 4.562 18.656-12.692 20.555-21.395 1.906-8.75 2.5-17.961-.656-26.652" fill="#ef2e31"/><path d="m138.84 144.703c2.594 4.899 4.859 9.477 7.531 14.461.5.93 1.012 1.871 1.543 2.836 1.922-2.223 5.234-3.523 7.926-5.207.613-.918-.387-2.449-.539-3.063-1.77-5.355-3.461-10.71-5.004-16.144-3.305 2.219-8.152 4.055-11.457 7.117" fill="#231f20"/><path d="m191.363 126.684c-2.136.429-5.301 1.136-7.918 1.351 1.512 5.61 2.133 12.078 3.926 17.766 6.332-1.922 12.188-1.778 18.66-3.274 5.371-.636 11.848-.781 17.699-1.207 1.864.5 4.063-.07 6.129-.14 2.141.355 4.961 0 7.305.355 6.199.5 12.395.992 17.973 1.488.48-5.894.968-12.074 2-17.898-21.969-1.496-43.871.57-65.774 1.559" fill="#231f20"/><path d="m313.867 159.398c.942-1.23 2.266-3.062 2.445-3.316 1.809-3.195 4.18-5.676 5.645-9.016-2.16-1.347-4.324-3.476-7.039-4.113-11.145-6.32-23.824-9.656-36.086-12.918l-1.324.496c-.981 5.25-1.879 10.574-3.203 15.684 5.609 1.43 11.289 2.844 16.718 4.898 1.825.692 3.602 1.5 5.454 2.149 2.488.871 4.871 2.23 7.261 3.347 1.313.614 7.614 4.496 8.879 3.313.098.262.137.394.301.598.035.042.434-.45.949-1.122" fill="#231f20"/><path d="m250.789 225.207c15.902 6.875 20.359 16.641 21.379 21.488 1.043 4.973-.133 10.028-3.07 13.196-2.176 2.339-5.598 3.48-10.465 3.48-6.988 0-15.715-2.414-22.727-4.351l-.164-.047c-4.18-1.153-8.558-1.739-13.015-1.739-4.289 0-7.09.567-7.192.582-5.926.743-10.68 2.461-15.281 4.125-5.32 1.93-10.34 3.743-16.238 3.579-4.364-.122-7.828-2.379-9.508-6.192-2.211-5.016-1.141-14.426 7.312-24.207 8.473-9.797 23.36-15.93 40.133-15.93 9.906 0 19.609 2.024 28.836 6.016" fill="#231f20"/><path d="m184.07 263.625c.231.008.461.012.692.012 5.25 0 9.914-1.688 14.847-3.477 4.7-1.699 9.555-3.453 15.618-4.211.121-.027 3.003-.609 7.5-.609 4.628 0 9.175.609 13.515 1.808l.164.043c6.903 1.907 15.492 4.282 22.227 4.282 4.25 0 7.305-.965 9.078-2.871.461-.5.855-1.075 1.211-1.676-.492-.481-2.281-2.145-5.305-4.246-.609.882-1.215 1.578-1.578 1.679-.082-.375.262-1.257.766-2.238-3.535-2.371-8.532-5.176-14.907-7.418-.437 1.059-.91 1.922-1.253 2.113-.149-.363.015-1.332.324-2.421-5.61-1.887-12.227-3.313-19.817-3.645-.066 1.055-.23 1.945-.488 2.215-.258-.274-.418-1.176-.488-2.25-1.614-.047-3.262-.055-4.961 0-4.723.156-9.117.734-13.184 1.582.071.937.035 1.719-.16 2-.266-.203-.535-.918-.754-1.801-6.683 1.477-12.422 3.688-17.101 5.977.339 1.047.531 1.98.39 2.336-.344-.161-.824-.934-1.273-1.899-3.758 1.902-6.781 3.824-9.016 5.41.371 1.164.582 2.317.371 2.707-.367-.164-.847-1.047-1.25-2.074-1.679 1.235-2.804 2.195-3.347 2.68.101.324.222.637.347.929 1.395 3.168 4.176 4.965 7.832 5.063" fill="#fff"/><path d="m182.832 236.922c-6.586 7.621-8.137 14.488-7.32 19.156.715-.605 1.8-1.484 3.258-2.539-.262-.953-.383-1.812-.204-2.141.305.137.684.762 1.032 1.551 2.273-1.59 5.285-3.48 8.98-5.344-.516-1.351-.871-2.71-.687-3.16.425.2 1.086 1.391 1.625 2.696 4.757-2.317 10.566-4.547 17.328-6.039-.239-1.5-.305-3.047-.008-3.465.398.304.805 1.761 1.035 3.242 4.102-.848 8.539-1.426 13.297-1.586.891-.027 1.77-.043 2.641-.043.789 0 1.566.02 2.336.039.019-1.422.191-2.785.519-3.133.332.352.508 1.739.524 3.176 7.726.336 14.488 1.785 20.214 3.711.524-1.449 1.172-2.797 1.614-3.039.191.461-.133 1.926-.621 3.379 6.429 2.265 11.5 5.094 15.113 7.512.762-1.227 1.621-2.325 2.086-2.457.101.48-.477 1.781-1.219 3.042 2.664 1.848 4.418 3.379 5.219 4.125 1.058-2.488 1.355-5.503.722-8.519-.945-4.488-4.781-12.996-19.902-19.531-8.988-3.887-18.437-5.86-28.082-5.86-16.242 0-31.375 5.836-39.5 15.227" fill="#fff"/><path d="m372.867 170.863c.578-2.289-1.308-5.004-3.871-6.019-3.816-1.504-7.543-4.442-10.691-7.051-1.532-1.266-8.02-9.719-10.633-7.156-3.352 3.289-1.18 7.761 0 11.511 1.781 4.801 5.992 10.071 11.519 10.594 3.586.348 8 2.43 11.461.641 1.274-.653 1.965-1.551 2.215-2.52" fill="#fabfbb"/><path d="m422.039 92.656c-4.676-7.148-10.996-12.437-18.625-16.254-9.609-4.804-22.836-8.816-31.918-1.449-3.027 5.067 3.356 7.109 6.184 9.477 1.906 1.597 4.097 2.781 6.148 4.164 2.008 1.359 3.641 3.277 5.699 4.523 4.278 3.887 8.625 7.699 12.965 11.52 2.703 2.375 4.481 4.925 7.934 6.468 3.668 1.633 8.621 2.317 11.613-.941 4.145-4.742 3.356-12.375 0-17.508" fill="#fabfbb"/><g fill="#231f20"><path d="m432.309 98.422c-4.676-10.067-13.032-17.234-21.981-23.36-17.64-11.382-40.207-10.394-58.898-2.695-10.782 5.367-21.539 14.418-24.938 25.594-3.867 12.73-4.371 21.687-3.621 33.172 1.977 9.277 5.727 18.558 10.859 26.781.594 1.383 1.383 2.961 2.102 4.473 3.867 8.093 9.082 15.437 13.066 23.468 1.61 3.25 6.559 9.75 6.485 13.321-.067 3.027-6.168 3.816-9.149 4.078-2.984.262-14.871 2.172-22.109 3.355-3.887.661-8.168 1.024-11.988 1.946-1.317 3.027-.84 6.871 2.812 7.547 16.321-2.239 32.203-5.153 48-7.645 1.313-.137 4.863-1.027 3.875-3.133-1.094-4.445-3.293-9.812-5.738-14.429-1.172-2.219-6.699-12.715-7.086-14.161-5.703-4.043-10.859-9.664-13.734-16.136-2.039-4.59-.746-15.516-.02-15.121-.656 10.664 5.621 22.07 14.442 27.925 5.726 3.293 10.656 5.477 17.613 5.996 11.515.395 23.156-5.82 28.289-15.953 2.562-4.937 1.906-11.457-.66-16.058-3.157-1.582-5.727 1.711-8.684 2.367-3.293-.063-3.555-4.672-6.648-4.734-2.633 1.05-3.555 5.789-7.239 3.75-1.976-1.122-2.632-3.555-4.605-4.282-1.91.789-3.356 2.7-5.66 2.371-1.84-1.839-4.496-7.129-7.301-10.16-1.711-1.847-3.945-2.254-4.742-2.277-.332-.266-.528-.66-.461-1.121 1.488-2.278 4.215-.434 5.996.383.84.382 4.312 2.574 6.18-1.168 1.91-3.661.281-12.391 4.867-12.309 3.867.07 9.519 8.523 13.293 3.488 2.304-2.828 4.051-7.398 8.793-7.136 2.121.488 4.043 3.714 4.961 6.148 1.117 4.012.394 9.344 4.871 11.387 1.539.519 3.222 0 3.351-2.172 2.993-.625-1.597 7.59 5.993 11.976 11.535 4.559 18.171-10.121 20.07-18.824 1.906-8.75 2.5-17.961-.656-26.652zm-129.969-25.727c-5.789-3.164-13.742-6.105-19.668-8.863-1.402 1.996-3.301 5.328-3.762 4.934-.062-1.973 5.07-20.684 5.598-26.407-.922-1.843-3.16-2.433-5.067-2.832-14.347-1.312-30.078-.332-43.105 4.411-.59 1.515-.133 3.292-.195 4.871 1.777 0 16.515 1.644 21.976 2.367-.722 2.043-9.543.859-14.211.328.528.266 11.914 3.644 13.422 5.988-2.961-.394-5.527-1.64-8.359-2.172-27.242-6.972-58.828-4.734-81.864 12.77-2.523 1.937-5.589 3.949-8.156 6.316.676-3.344 8.489-9.277 11.516-11.386-3.422.332-6.328 1.675-9.344 2.566 4.016-3.024 9.344-5.395 14.543-6.512 3.688-1.844 13.75-6.976 15.133-7.242.398-1.312.277-2.973 0-4.406-1.5-.711-9.672.461-14.672 1.051-7.695 1.05-26.125 5.785-27.77 8.093.594 3.621 4.196 13.078 2.875 14.86-4.144 4.011-10.75 7.597-13.8 10.875-5.922 5.59-18.391 15.945-25.168 32.195-3.313 7.363-3.176 14.996-1.125 22.246 1.574 5.563 11.402 22.043 11.488 21.957 2.301-2.301 3.055-3.703 5.656-7.699.793-1.188-.703-2.168-.332-2.906l1.297-1.125c2.305 5.398 10.816 19.429 9.961 21.734-2.672 1.961-4.406 4.805-5.988 7.371-1.781 3.356-1.274 7.762 1.051 9.672 2.832 1.84 6.777 1.195 9.015-.195.266-.856-.918-1.848-1.379-2.832-.488.226-2.855 1.187-2.855.597.199-1.316 1.109-2.297 2.328-3.754 4.277-4.082 9.41-6.91 14.41-9.937 10.133-5.793 22.422-9.176 32.84-11.844 20.133-4.414 41.062-5.137 61.394-1.582 7.86.992 15.657 2.461 23.348 4.317 7.711 1.855 15.664 4.054 23.035 6.867 3.278 1.25 6.574 2.418 9.692 4.058 1.718.903 7.988 4.008 8.218 6.211.133 1.25 0 2.696-1.378 2.895-.532-.332-.579-.582-.989-.789-.664.285-.918 1.777-1.25 1.843 2.367.325 4.739-.859 6.313-2.371 1.843-2.019 2.832-4.8 1.718-7.695-.21-.531-1.046-1.121-1.093-1.652-.145-1.637 8.535-12.992 10.301-16.184-1.45-3.359-5.676-12.433-6.641-15.59-4.086-13.351-2.555-27.265 1.375-40.476.93-3.098 1.844-6.383 3.492-9.02-6.848-7.172-15.598-11.383-23.824-15.922zm-33.629-49.617c-.918-4.281-2.434-10.461-7.633-10.926-6.047.274-11.473 21.094-11.844 25.469 7.239-.855 14.739-2.043 22.114-1.773-.395-4.215-1.516-8.625-2.637-12.77zm-96.668 3.156c-1.379-1.445-3.355-1.117-4.34.594-5.004 5.922-6.383 15.199-8.754 22.176 6.117-2.234 13.489-2.695 20.004-4.145-1.777-6.32-3.945-12.836-6.91-18.625zm-40.402 147.207c.726-3.289 6.777-4.539 3.617-8.421-1.778-3.879-3.551-7.899-5.528-11.649-2.171 2.043-3.554 4.149-5.394 6.32.195 5.395 5.199 8.95 7.305 13.75zm-38.645 22.329c-8.019 3.589-13.957 26.253-16.172 37.16-.265 2.175-.886 3.562-3.883 3.187-3.492-.133-7.242-.023-10.531.766-21.453 3.621-37.445 22.043-43.43 42.051-2.175 9.605-2.964 18.031-2.367 28.226 1.575 21.52 15.922 42.184 37.309 48.371 9.551 2.762 19.832 3.266 29.351.789 6.145-1.605 11.965-4.605 16.555-9.027 3.035-2.926 6.09-6.289 7.43-10.363.894-2.715 1.551-7.289-.891-9.418-3.246-2.836-8.742 1.668-11.844-2.188-.515-1.402-.55-3.211-.476-4.816.152-3.278.703-7.344-3.207-8.871-.633-.371-10.266-2.961-9.477 2.832-4.547-3.5 3.887-13.93 3.688-17.047 0-4.34-4.871-6.711-5.86-10.461-1.117.59-1.757 1.934-2.039 2.695-2.777-6.383 7.137-4.066 8.543-11.765.664-3.106-2.359-4.75-3.343-7.055-1.911-2.434-.661-5.395.789-7.699 2.566-2.567 5.656-4.407 9.144-4.278 3.027-.058 5.926.661 7.77 2.7 2.168 2.832.129 7.832 2.367 10.855 2.766 1.516 7.711.18 9.023 4-1.476-.148-2.507-.051-3.5-.051-.457 3.817-3.578 9.375-.191 11.254 2.101.461 11.578 4.539 4.605 4.078-.461 2.11-1.644 3.95-1.449 6.321.328 3.027 6.625 6.511 16.742-2.512 17.828-15.891.594-50.031-26.547-56.059-3.832-.851-8.226-.59-11.648-2.562-.754-.438 1.195-30.328 8.488-33.297 8.688-2.305 38.035-.594 43.434-.461 1.644.063 4.082.063 5.855.59.856-1.91 1.188-4.672-.328-6.445-6.578-.2-50.332-3.102-53.91-1.5zm49.828 16.828c6.844 2.433 23.09 1.73 23.09 1.73-3.949-5.332-16.652-21.832-18.809-24.035-1.71-.922-4.945.203-4.609 4.734 2.832 1.188 2.172-2.363 4.609-2.632.977.378 3.934 2.988 3.657 9.683-.16 3.981-2.766 8.949-7.012 8.152.074-.656 1.145-1.117 1.242-1.918-.664-.66-1.312-1.832-1.508-2.687-.957-.031-1.906-.332-2.699-.133-.328 2.965-.367 5.93 2.039 7.106zm178.711-35.727c-.238 1.895-.91 3.594-2.324 4.934-2.254 2.14-7.293 4.086-10.215 2.148-1.558 2.024-6.871 11.254-7.641 12.656 3.204-.742 11.782-4.554 16.579-.265 2.109 1.644 3.757 4.148 4.152 6.582l.129 1.449c8.332-1.168 22.476-3.078 29.418-4.871 2.004-1.57-14.942-30.668-22.113-42.18-3.446 4.488-6.372 8.196-9.067 13.071.926 1.718 1.195 5.539 1.082 6.476zm-152.933 22.531c3.257.692 7.398 6.219 9.867 7.993.269-4.211.308-18.805 1.875-20.129 2.07.101 15.59 10.457 20.422 14.406 4.605-3.156 24.25-15.199 29.714-16.582 1.512 2.039 2.567 3.621 3.75 5.859 2.5 5.328 5.332 9.606 7.305 15.137 8.36 2.371 16.188 4.672 24.02 8.422 5.133 2.961 12.136 6.129 17.203 9.293-1.629-2-2.031-5.422-1.699-5.555.738 1.555 2.046 3.852 3.625 3.852 5.988.394 25.421-1.934 29.961-1.602 1.562-.25 2.671-1.211 2.5-2.039-.985-.926-1.118.922-2.04 1.051-5-1.313-8.175-5.461-6.117-12.766 1.684-5.98 5.723-6.781 7.235-6.449.859.656-1.578 2.832-1.578 2.832l1.609 1.988c.203.793 2.371 0 3.789-.41-.332-2.5-1.648-6.051-4.738-7.109-2.899-1.184-5.332.133-8.094.793-5.332 2.039-14.957 4.746-18.707 5.66-.609-.84 4.918-4.078 7.723-5.555 3.156-4.015 10.804-17.613 13.355-22.219-14.48-7.961-30.352-11.5-46.805-15.449-5.461-1.054-30.933-6.808-59.011-3.5-10.055 1.117-41.676 7.051-59.692 23.028-.191.093 9.871 14.773 10.86 16.121 2.425 3.308 7.648 10.629 10.793 13.558.507-.367 1.226-7.668 2.875-10.629zm.613 15.368c2.238-2.301 4.867-4.477 8.027-4.872l.137-.128c-1.715-2.567-7.035-7.668-7.691-7.602-.661 3.156-1.68 8.383-1.59 10.762zm54.293-11.844c5.195.922 10.461 1.383 15.656 2.699-1.047-2.305-9.027-18.914-9.684-18.063-7.238 4.477-16.437 9.047-23.48 13.985 5.793.191 11.977.723 17.508 1.379zm213.547-82.227c-.539 4.676-2.18 8.477-3.5 12.93-1.5 5.082-7.692 12.66-13.227 13.559-2.453.792-7.273.078-9.43-1.258-1.523-.942-2.535-2.489-3.336-4.043-.242-.477-1.527-4.512-1.972-4.434-2.949.504-4.305-.113-6.278-2.086-3.332-4.07-1.621-10.887-5.367-15.289-.629-.844-1.648-1.582-2.57-.328-1.711 2.762-2.566 6.645-6.117 8.355-5.399 2.629-8.293-3.753-12.965-4.41-3.398.129-.438 6.567-3.16 11.055-.918 1.645-4.309 2.617-6.449 2.039 1.183 1.844 2.5 3.816 3.621 5.531 1.648 2.895 4.011-1.254 6.316-1.121 2.832 0 4.672 2.766 6.317 4.41.726.727 3.578-4.183 5.656-4.078 3.82-1.054 4.347 2.895 6.652 4.867 2.828 1.25 3.422-2.894 6.313-2.699 3.492-.394 4.839 2.289 5.859 4.739 1.223 2.925 1.469 6.597 1.035 9.117-.629 3.644-2.168 7.039-4.234 10.144-3.801 5.711-9.891 10.266-16.348 12.649-4.84 1.789-16.898 3.047-25.66-1.114 3.523 7 5.527 11.454 8.426 17.11 1.316 3.16 5.113 11.601 1.047 13.426-4.278 1.316-45.227 7.343-46.274 8.085-2.105 1.497-3.558 4.235-5.972 5.602-10.137.789-19.973 1.07-29.645 1.602.066.722-4.941 11.007-8.133 15.605l-1.719-2.5c.426-.684 4.75-8.523 6.196-11.812-9.871-6.055-19.871-11.711-30.992-15-8.395-2.489-17.137-3.637-25.719-5.297-4.594-.891-9.274-1.332-13.953-1.367-2.594-.024-7.84-.258-11.332.015-5.59-4.012-17.106-12.898-17.832-13.426-1.313 6.25 0 13.821-1.774 19.743-2.898 2.367-7.898 1.71-9.476 5.859 3.66 3.937 7.105 8.012 10.593 12.047l-2.144 1.523c-4.317-4.402-10.184-12.511-12.66-14.23-5.137.129-21.59.332-24.352-.66-2.078-.637-3.949-3.09-4.406-5.528-.199-1.445.187-2.886.328-4.867-5.391-.262-31.656-1.844-39.816 1.117-4.758 3.199-7.063 28.84-5.731 29.43 7.317.742 15.797 3.062 22.199 6.734 5.864 3.367 10.188 8.09 14.789 12.926 6.082 6.391 11.52 20.992 6.649 32.051-3.492 7.922-9.84 16.176-20.66 16.582-3.192.117-7.782-1.715-7.278-6.086.231-1.98 2.575-5.902.43-7.602-1.973-.855-4.867-1.843-5.195-4.476-.719-4.738 1.578-6.649 1.906-9.938-1.934-.328-3.996.192-5.625-1.789-1.074-1.304-1.305-3.14-1.461-4.75-.258-2.703.227-6.777-2.68-8.254-2.492-1.265-6.437-.289-8.726 1.043-9.844 5.715 3.664 11.356.66 18.16-1.297 3.055-3.817 4.083-6.188 5.399.528 4.605 7.438 5.66 6.52 10.922-.465 2.832-3.688 7.566-3.688 7.566s-3.031 3.489-.593 5.071c4.343.46 8.222-.661 11.648 2.168 1.317 2.171 2.106 4.937 1.317 7.57-.133 1.906-1.778 3.683 0 5.265 4.078-.593 8.687-2.371 12.437-.199 4.707 4.59.289 13.531-2.344 17.965-5.019 8.43-13.027 14.652-22.445 17.43-4.113 1.211-16.238 2.488-23.688 1.058-12.5-2.433-23.187-7.406-32.14-17.066-14.203-15.32-17.086-40.973-15.867-51.477 1.523-13.144 6.394-26.566 14.757-37.031 12.356-15.469 26.254-19.125 35.333-21.031 3.488-.527 6.515-.594 10.066-.461 1.711-7.082 8.176-33.516 15.957-38.965 5.336-3.734 26.25-1.488 32.168-1.32 6.141.183 12.773 1.125 19.387 1.804 0 0 .863-4.292 1.39-6.07-4.558.402-8.187-.262-10.265-2.238-1.86-1.762-2.504-7.051-.989-10.594.282-.656-4.507-6.668-5.054-7.43-1.621-2.261-3.305-4.476-4.883-6.773-6.469-9.387-14.801-22.078-14.672-33.906.262-12.762 6.906-24.61 15.133-33.688 3.492-4.148 15.652-17.031 27.594-23.937-.469-1.871-3.18-12.653-3.442-15.024 2.172-3.351 7.039-3.422 10.461-5.394 1.973-9.211 5.211-17.594 10.149-25.758 1.281-1.777 3.011-3 4.984-2.801 5.969.629 9.613 22.832 10.14 23.363 5.004-.828 11.911.454 11.911.454 2.168.656.918 4.203.988 5.824 12.5-2.434 26.836-4.461 38.691-2.332-.117-1.91-.707-4.571.481-6.156 3.484-3.68 8.285-3.356 12.351-4.305 1.164-6.25 8.071-28.551 14.672-29.813 2.782-.531 8.199 2.348 10.926 12.176 1.313 5.133 2.828 10.262 3.754 15.594l2.367.332c3.555.457 7.043 1.445 9.938 3.023.394 7.106-2.571 14.086-3.621 20.664 2.566.461 21.386 10.2 28.296 14.086 4.614 2.778 11.715 6.512 16.254 11.516 7.973-9.824 21.528-17.215 32.75-20.371 10.309-2.899 21.34-4.203 31.883-1.734 9.895 2.324 19.016 6.613 26.848 13.05 8.652 7.114 14.336 16.039 16.711 27.067 1.187 5.531 1.445 11.273.793 16.894"/><path d="m193.367 127.312c-2.043.399-5.066 1.051-7.57 1.254 1.449 5.196 2.043 11.184 3.754 16.454 6.051-1.778 11.644-1.649 17.832-3.032 5.129-.593 11.32-.722 16.91-1.121 1.777.465 3.883-.062 5.855-.125 2.043.324 4.743 0 6.977.324 5.926.465 11.844.922 17.176 1.383.461-5.465.926-11.187 1.91-16.582-20.992-1.387-41.918.528-62.844 1.445zm-12.637-3.023c-1.644-3.574-21.914 4.344-27.64 7.434-2.629 1.25-1.906 3.945-1.578 6.187 1.25 2.895 4.738 14.078 5.066 16.582.922 2.172 1.563 5.074 4.215 5.199 4.078-.593 21.418-6.062 25.766-7.968 2.379-1.219-3.481-22.719-5.829-27.434zm-6.511-39.617c.699-3.277 2.472-8.309 0-8.027-2.637.066-8.774 1.886-13.328 7.777-4.868 6.285-6.993 24.996-3.852 43.027 5.266-1.519 10.836-3.984 16.102-5.5-1.832-6.484-2.082-26.484 1.078-37.277zm-34.551 61.266c2.633 5 4.871 9.605 7.766 14.874 1.644-1.91 4.476-3.027 6.777-4.476.527-.793-.328-2.106-.461-2.633-1.512-4.605-2.961-9.215-4.277-13.887-2.828 1.911-6.977 3.489-9.805 6.122zm116.082-.79c-7.434-2.437-54.613-2.601-65.875 2.313-.77 1.559.602 4.695-1.902 5.453-6.078 2.731-24.297 8.797-29.164 8.797-1.258-.149-2.594-1.773-3.477-3.797-2.898 1.184-5.523 4.156-8.289 5.277-2-.812-9.547-15.937-10.535-20.543l.922-.328c1.117 0 .523 1.25 1.117 1.707 3.031-2.101 6.711-4.871 10.465-6.312-.196-2.375-.528-3.488.265-5.664.356-1.344 3.422-2.567 5.528-3.285-2.086-14.512-.758-27.137-.215-32.567 1.086-10.363 6.113-18.039 14.297-21.137 3.855-1.46 8.289-1.972 8.492.262.457 9.61-7.102 25.61-2.176 46 1.906.266 4.012-.855 5.988 0 2.106.594 3.289 2.965 4.082 4.871 4.141-.527 7.239-.984 11.25-1.25 12.899-1.644 25.864-2.238 38.829-2.699 4.265.098 13.738-.051 21.316 1.121.727-.265.41-1.847.41-2.504.395-.328.582-.457 1.367-.195.856 4.012-2.234 23.492-2.695 24.48"/><path d="m170.27 120.996c-.329-8.617-1.032-16.281-.262-24.941.765-8.641 2.762-16.055 2.367-16.582-.594-.067-2.176-.856-2.105.593-3.446 12.282-3.446 31.618-1.582 40.602.46.328 1.054.723 1.582.328"/><path d="m187.25 225.152c-1.152.301-3.152 1.051-5.566 2.532-2.407 1.48-5.223 3.707-7.797 6.82-2.578 3.094-4.891 7.082-6.258 11.668-.688 2.289-1.129 4.719-1.285 7.199-.145 2.477-.063 5.035.609 7.563.652 2.507 1.91 4.918 3.723 6.804 1.801 1.903 4.109 3.227 6.476 3.938 4.797 1.437 9.586.633 13.348-.895 7.156-3.156 12.93-4.609 15.301-4.777-1.164-.309-3.336-.277-6.106.219-2.769.484-6.172 1.472-9.859 2.839-3.52 1.231-7.898 1.762-11.992.418-2.028-.66-3.93-1.8-5.414-3.398-1.489-1.586-2.539-3.605-3.106-5.777-.582-2.164-.679-4.504-.566-6.797.117-2.297.492-4.555 1.082-6.696 1.176-4.3 3.211-8.113 5.496-11.171 2.281-3.067 4.805-5.395 6.957-7.071 2.168-1.683 3.973-2.746 4.957-3.418"/><path d="m266.773 228.117c.84.805 2.332 2.184 4.11 4.192 1.769 2.007 3.855 4.64 5.617 7.921 1.75 3.262 3.164 7.266 3.043 11.512-.043 2.117-.512 4.242-1.328 6.293-.805 2.035-1.985 3.918-3.563 5.403-3.14 3.027-7.73 4.144-12.023 4.191-4.363.066-8.445-.797-12.168-1.746-7.535-1.778-13.586-1.879-15.852-1.262 2.305.203 8.094.91 15.391 3.043 3.625 1.133 7.969 2.234 12.637 2.262 2.336.012 4.769-.238 7.152-.965 2.375-.719 4.691-1.969 6.551-3.742 1.875-1.762 3.242-3.992 4.129-6.301.879-2.297 1.379-4.754 1.375-7.141.023-4.816-1.715-9.117-3.742-12.457-2.055-3.371-4.418-5.925-6.454-7.769-2.046-1.84-3.808-2.969-4.875-3.434"/><path d="m242.699 217.062c-1.015-.714-3.871-2.085-7.867-3.109-3.977-1.047-9.094-1.644-14.18-1.351-5.086.253-10.093 1.359-13.968 2.714-3.887 1.34-6.661 2.891-7.594 3.719 1.203-.312 4.094-1.426 7.98-2.461 3.871-1.051 8.75-1.976 13.676-2.222 4.926-.286 9.863.148 13.805.886 3.949.711 6.91 1.649 8.148 1.824"/><path d="m203.801 270.652-2.16 1.223c-2.352-2.344-3.856-4.09-4.047-4.313l-.008-.007 2.726-.508c.766.836 1.958 2.109 3.489 3.605"/><path d="m240.305 283.84c-4.289 1.699-9.141 2.758-14.438 2.488-6.207-.316-12.957-4.64-18.301-9.058l2.981-.665c4.773 3.739 10.391 7.102 15.441 7.36 5.254.265 10.094-.91 14.336-2.738z"/><path d="m259.816 269.293c-.277.359-3.644 4.602-9.273 8.766l-.316-2.797c4.82-3.766 7.66-7.34 7.718-7.418l2.598.515z"/><path d="m218.41 274.992c-.449.696-1.101 1.434-2.035 1.969-.926.543-2.137.809-3.359.703-2.184-.148-4.704-.391-6.93.398-1.098.395-2.059 1.106-2.856 2.063-.363.445-.847 1.094-1.332 1.602-.496.535-1.035 1.039-1.625 1.492-1.179.906-2.609 1.578-4.105 1.808-.746.125-1.496.137-2.223.075-.73-.051-1.472-.266-1.933-.262-2.352-.055-4.703.875-6.567 1.883-1.883 1.031-3.359 2.277-4.394 3.41-1.043 1.133-1.656 2.144-2.039 2.711 0-.008 0-.012 0-.02 0 .004 0 .012-.004.02-.102-.711-.117-1.977.113-3.645.25-1.656.676-3.769 1.953-5.918.645-1.054 1.567-2.133 2.891-2.808 1.269-.594 2.605-.981 3.969-1.305 2.703-.656 5.652-.906 7.836-2.285.539-.34 1.011-.758 1.41-1.238.375-.461.789-1.122 1.199-1.696.84-1.148 1.641-2.453 3.109-3.308 1.516-.813 3.059-.692 4.352-.625 1.316.101 2.535.289 3.621.285 2.191.097 3.676-1.317 4.695-2.563 1.024-1.254 1.692-2.32 2.149-2.867-.2.684-.637 1.867-1.528 3.317-.453.714-1.031 1.511-1.902 2.207-.855.71-2.109 1.167-3.359 1.218-1.254.078-2.5-.051-3.758-.09-1.238-.035-2.535-.015-3.457.547-.934.547-1.707 1.703-2.5 2.86-.414.59-.746 1.16-1.274 1.824-.511.625-1.132 1.176-1.808 1.605-1.364.875-2.871 1.297-4.297 1.618-1.43.312-2.817.523-4.133.796-1.316.27-2.578.602-3.668 1.055-1.012.457-1.82 1.281-2.445 2.168-1.246 1.816-1.86 3.801-2.305 5.359-.035.118-.055.215-.086.329.031-.051.051-.098.09-.149.918-1.34 2.949-2.703 4.902-3.945 1.957-1.207 4.36-2.356 7.289-2.391.176-.004.391.02.586.035l.52.071c.297.054.601.086.902.113.606.039 1.215.016 1.813-.09 1.191-.203 2.324-.738 3.324-1.504.5-.383.969-.82 1.41-1.289.461-.48.797-.93 1.301-1.531.949-1.125 2.238-2.043 3.621-2.488 1.387-.469 2.769-.539 4.039-.504 1.273.035 2.469.187 3.574.347.996.145 1.942.012 2.731-.347.789-.356 1.418-.914 1.91-1.477.98-1.152 1.461-2.258 1.769-2.859-.035.679-.261 1.906-1.156 3.316"/><path d="m240.02 268.891-.082 1.179c-.036.559-3.758 56.332-4.34 79.18-.332 12.863-.473 55.727 11.539 67.203 2.207 2.106 4.715 3.078 7.488 2.879 3.281-.234 6.695-1.531 8.793-4.141 8.23-10.238 6.066-36.961 2.371-62.16-4.293-29.293-15.121-79.843-15.219-80.347l-.125-.661-2.664-1.48.465 2.594c.098.496 9.715 50.433 14.004 79.668 3.41 23.254 5.984 50.531-1.715 60.113-1.695 2.109-3.797 3.227-6.43 3.414-2.085.148-3.957-.578-5.683-2.23-8.984-8.582-11.125-38.79-10.457-64.793.582-22.797 4.301-78.52 4.336-79.079l.082-1.183z"/><path d="m256.34 438.098c-.176 0-.395-.047-.68-.192-1.785-.89-3.933-9.297-.722-19.066.164 1.941 1.039 6.969 2.363 11 1.664 5.058 1.429 8.14-.961 8.258zm-1.477-21.043-.058.554-1.442-.445-.351 1.129c-2.196 7.141-2.278 20.496 1.816 22.543 1.371.687 2.762.566 3.805-.34 1.98-1.703 1.988-6.601.387-11.469-2.243-6.812-1.926-10.527-1.918-10.566l.109-1.172z"/><path d="m243.391 427.129c1-4.551 4.488-6.906 8.535-8.141-1.086 1.461-3.465 4.707-4.715 8.235-1.891 5.328-4.887 4.75-3.82-.094zm8.586-10.207-1.11.414c-1.832.687-7.933 3.43-9.324 9.734-.824 3.735.437 6.102 1.898 6.52 1.84.527 4.512-1.375 5.997-5.574 2.05-5.766 4.683-8.172 4.71-8.196l.879-.793-1.582-1.761-.879.793c-.011.007-.054.046-.121.113z"/><path d="m261.203 415.242-1.879.586-.441.688c.078 2.097 2.324 4.687 4.926 7.683 1.179 1.36 2.398 2.762 3.285 4.008.941 1.332.718 2.633.027 3.188-.711.566-2.183.515-4.004-1.508-4.113-4.567-5.219-11.664-5.222-11.739l.625-1.242-2.364.121.059 1.184c.019.328.473 8.074 5.14 13.262 2.926 3.246 5.731 2.98 7.25 1.769 1.532-1.23 2.204-3.894.418-6.406-.953-1.34-2.363-2.5-3.578-3.902-1.918-2.207-5.183-4.704-5.23-5.969z"/><path d="m216.242 432.527c-.297 0-1.43-.316-2.336-1.367-2.629-3.043-3.668-9.93-3.496-12.32.836 1.848 3.836 6.894 5.926 9.633 1.371 1.8 1.281 3.711.051 4.015-.039.012-.078.039-.145.039zm-4.871-14.953-1.394.617.023.059-.742.035v1.184c0 .355-.653 8.648 3.34 13.269 2.769 3.207 5.207 2.485 5.742 2.047 1.695-1.375 1.836-4.433-.844-7.582-2.914-3.43-5.656-8.48-5.68-8.535z"/><path d="m205.629 438.809c-.594 0-1.16-.801-1.438-2.067-.886-4.082-.941-9.418 2.211-16.41 0 2.637.371 9.48 1.239 13.77.769 3.796-.598 4.734-1.871 4.691-.051 0-.094.016-.141.016zm-.512-20.356-.492 1.078c-.949 2.067-4.043 11.758-2.746 17.719.691 3.164 2.793 4.719 4.484 4.355 2.227-.48 3.922-3.914 3.063-8.011-1.238-5.906-.965-13.055-.965-13.129l.047-1.184-1.735-.066z"/><path d="m194.938 431.055c-.34 0-.657-.215-.848-.582-.457-.879-.508-3.207 1.355-5.539 2.743-3.422 5.926-4.899 8.7-5.754-1.719 1.8-5.571 6.015-6.954 9.761-.32.887-1.644 2.079-2.199 2.114-.019 0-.039 0-.054 0zm9.308-13.621-1.16.25c-.207.039-5.102 1.132-9.262 6.336-3.152 3.941-2.453 7.035-1.957 7.992.637 1.226 1.856 1.937 3.153 1.855 1.523-.101 2.945-1.676 3.601-3.469 1.656-4.511 6.852-9.468 6.906-9.515l.86-.813-1.629-1.722-.262.254z"/><path d="m209.273 276.113.223 1.485c-3.836 9.789-14.949 47.582-16.914 73.961-1.574 21.078-.512 55.992 8.856 65.793 1.82 1.906 3.898 2.836 6.171 2.773 2.383-.074 5.418-.98 7.266-2.961 9.594-10.293 8.699-43.418 8.289-53.48-.719-17.539-3.137-79.34-3.16-79.957l-.031-1.18-2.371.07.039 1.184c.015.613 1.847 61.785 2.566 79.34.824 20.257-.918 43.566-8.047 51.211-1.418 1.523-2.957 2.285-4.711 2.339-1.601.059-3.031-.621-4.387-2.039-7.824-8.183-9.98-38.007-8.121-62.918 1.868-25.046 12.102-63.453 16.102-73.652l.379-.336z"/><path d="m240.066 268.734c-3.988 0-5.195 1.723-5.351 2.653-.449 2.66 5.89 2.84 6.012 2.855l.839.395.246-.934-.937-.148c-.027-.008-5.594-.563-4.789-1.926.258-.434 2.176-1.617 7.273-.649 5.11.965 5.45 2.684 5.45 2.704l.019.945 1.891-.098-.274-2.508c-.007-.527-.84-1.628-6.73-2.906-1.426-.305-2.633-.383-3.649-.383"/><path d="m184.762 263.637c-.231 0-.461-.004-.692-.012-3.656-.098-6.437-1.895-7.832-5.063-1.976-4.488-1.281-12.527 6.594-21.64 8.125-9.391 23.258-15.227 39.5-15.227 9.645 0 19.094 1.973 28.082 5.86 15.121 6.535 18.957 15.043 19.902 19.531.918 4.379-.078 8.793-2.605 11.516-1.773 1.906-4.828 2.871-9.078 2.871-6.735 0-15.324-2.375-22.227-4.282l-.164-.043c-4.34-1.199-8.887-1.808-13.515-1.808-4.497 0-7.379.582-7.5.609-6.063.758-10.918 2.512-15.618 4.211-4.933 1.789-9.597 3.477-14.847 3.477zm37.191-44.446c-16.773 0-31.66 6.133-40.133 15.93-8.453 9.781-9.523 19.191-7.312 24.207 1.68 3.813 5.144 6.07 9.508 6.192 5.898.164 10.918-1.649 16.238-3.579 4.601-1.664 9.355-3.382 15.281-4.125.102-.015 2.903-.582 7.192-.582 4.457 0 8.835.586 13.015 1.739l.164.047c7.012 1.937 15.739 4.351 22.727 4.351 4.867 0 8.289-1.141 10.465-3.48 2.937-3.168 4.113-8.223 3.07-13.196-1.02-4.847-5.477-14.613-21.379-21.488-9.227-3.992-18.93-6.016-28.836-6.016"/><path d="m223.809 239.25c-.871 0-1.75.016-2.641.043-29.098.961-46.477 17.5-46.648 17.664l-.512.496.988 1.02.512-.493c.168-.164 17.183-16.324 45.707-17.265 30.683-1.004 47.691 16.187 47.863 16.359l.492.512 1.02-.988-.492-.508c-.168-.176-16.625-16.836-46.289-16.84"/><path d="m249.016 240.004c-.922.508-2.774 5.84-2.371 6.812.917-.511 2.777-5.843 2.371-6.812"/><path d="m265.594 248.438c-.992.281-3.77 4.921-3.555 5.921.984-.277 3.766-4.918 3.555-5.921"/><path d="m226.664 236.156c-.699.739-.699 6.071 0 6.809.699-.738.699-6.07 0-6.809"/><path d="m206.836 237.637c-.582.832.23 6.047 1.035 6.66.578-.832-.23-6.047-1.035-6.66"/><path d="m187.891 244.445c-.383.946 1.593 5.93 2.515 6.364.379-.946-1.59-5.934-2.515-6.364"/><path d="m178.566 251.398c-.457.84 1.051 5.247 1.922 5.629.453-.839-1.054-5.242-1.922-5.629"/><path d="m216.059 332.59c0-6.383-3.036-11.551-6.774-11.551-3.742 0-6.773 5.168-6.773 11.551 0 6.375 3.031 11.547 6.773 11.547 3.738 0 6.774-5.172 6.774-11.547"/><path d="m255.805 329.574c-.305-6.519-3.645-11.66-7.477-11.484-3.82.18-6.676 5.605-6.375 12.125.301 6.519 3.649 11.664 7.473 11.484 3.824-.179 6.683-5.605 6.379-12.125"/></g><path d="m204.715 331.617s1.48 4.344 4.637 4.242c3.156-.097 4.242-2.562 4.242-2.562s1.281 7.301-4.145 7.199c-5.426-.098-4.734-8.879-4.734-8.879" fill="#fff"/><path d="m244.18 329.547s1.48 4.34 4.636 4.242c3.157-.098 4.243-2.566 4.243-2.566s1.285 7.3-4.145 7.203c-5.426-.098-4.734-8.879-4.734-8.879" fill="#fff"/><path d="m313.988 143.242c-10.527-5.859-22.504-8.953-34.086-11.98l-1.25.461c-.925 4.871-1.777 9.808-3.027 14.543 5.297 1.324 10.66 2.636 15.793 4.543 1.723.64 3.402 1.39 5.152 1.992 2.352.808 4.602 2.066 6.856 3.105 1.242.567 7.195 4.168 8.39 3.067.09.246.129.367.282.558.035.039.41-.418.898-1.043.887-1.14 2.137-2.84 2.309-3.074 1.707-2.961 3.945-5.262 5.328-8.359-2.039-1.25-4.082-3.223-6.645-3.813zm9.395 3.594c-3.352 4.871-7.223 10.352-10.445 15.223-.961 1.015-2.899-.657-2.899-.657-6.711-3.488-24.477-9.609-26.059-10.07-3.421-1.117-7.238-1.578-10.726-2.699-.066-1.184 3.883-22.371 4.277-23.688.657 0 1.516-.066 1.711.657.395 1.054-.129 1.777 0 2.832 1.61-.071 21.856 6.55 25.203 8.121 5.578 2.617 19.141 9.425 18.938 10.281" fill="#231f20"/><path d="m155.184 136.297c.156 1.265 5.214 18.504 6.218 19.254.879.66 21.203-5.77 21.731-6.821.523-1.05-3.91-20.187-5.281-21.125-.727-.492-6.711.551-13.75 3.364-7.34 2.937-9.192 3.074-8.918 5.328" fill="#231f20"/><path d="m194.699 199.547c-7.597 0-13.898 3.125-15.566 5.562l1.965 1.344c1.25-1.824 7.875-5.055 15.558-4.449l.188-2.375c-.723-.055-1.442-.082-2.145-.082" fill="#231f20"/></g></svg>